# xmcd
#
# Track frame offsets: 
#        150
#        37794
#        56296
#        73338
#        88691
#        107978
#        117396
#        140121
#        157298
#        174541
#        195566
#        211512
#        229658
#        253686
#
# Disc length: 3649 seconds
#
# Revision: 3
# Processed by: cddbd v1.5.2PL0 Copyright (c) Steve Scherf et al.
# Submitted via: ExactAudioCopy v1.0b3
#
DISCID=c80e3f0e
DTITLE=Atrophy - Socialized Hate
DYEAR=2006
DGENRE=Metal
TTITLE0=DATA
TTITLE1=Chemical Dependency
TTITLE2=Killing Machine
TTITLE3=Matter Of Attitude
TTITLE4=Preacher, Preacher
TTITLE5=Beer Bong
TTITLE6=Socialized Hate
TTITLE7=Best Defence
TTITLE8=Product Of The Past
TTITLE9=Rest In Pieces
TTITLE10=Urban Decay
TTITLE11=Chemical Dependency [Demo]
TTITLE12=Rest In Pieces [Demo]
TTITLE13=Preacher, Preacher [Demo]
EXTD=
EXTT0=
EXTT1=
EXTT2=
EXTT3=
EXTT4=
EXTT5=
EXTT6=
EXTT7=
EXTT8=
EXTT9=
EXTT10=
EXTT11=
EXTT12=
EXTT13=
PLAYORDER=
